<mxfile host="app.diagrams.net" modified="2023-06-26T18:15:08.143Z" agent="Mozilla/5.0 (Windows NT 10.0; Win64; x64) AppleWebKit/537.36 (KHTML, like Gecko) Chrome/114.0.0.0 Safari/537.36" etag="iwkFmaoMiUyxQY6ZM1-v" version="21.5.0" type="device">
  <diagram id="C5RBs43oDa-KdzZeNtuy" name="Page-1">
    <mxGraphModel dx="768" dy="403" grid="1" gridSize="10" guides="1" tooltips="1" connect="1" arrows="1" fold="1" page="1" pageScale="1" pageWidth="827" pageHeight="1169" math="0" shadow="0">
      <root>
        <mxCell id="WIyWlLk6GJQsqaUBKTNV-0" />
        <mxCell id="WIyWlLk6GJQsqaUBKTNV-1" parent="WIyWlLk6GJQsqaUBKTNV-0" />
        <mxCell id="ut8XyZLa7zU56cDXypcy-7" value="Начало" style="ellipse;whiteSpace=wrap;html=1;" vertex="1" parent="WIyWlLk6GJQsqaUBKTNV-1">
          <mxGeometry x="360" y="10" width="120" height="30" as="geometry" />
        </mxCell>
        <mxCell id="ut8XyZLa7zU56cDXypcy-18" value="" style="edgeStyle=orthogonalEdgeStyle;rounded=0;orthogonalLoop=1;jettySize=auto;html=1;entryX=0.5;entryY=0;entryDx=0;entryDy=0;" edge="1" parent="WIyWlLk6GJQsqaUBKTNV-1" target="ut8XyZLa7zU56cDXypcy-20">
          <mxGeometry relative="1" as="geometry">
            <mxPoint x="420" y="40" as="sourcePoint" />
          </mxGeometry>
        </mxCell>
        <mxCell id="ut8XyZLa7zU56cDXypcy-19" value="" style="edgeStyle=orthogonalEdgeStyle;rounded=0;orthogonalLoop=1;jettySize=auto;html=1;" edge="1" parent="WIyWlLk6GJQsqaUBKTNV-1" source="ut8XyZLa7zU56cDXypcy-20">
          <mxGeometry relative="1" as="geometry">
            <mxPoint x="420.0344827586207" y="109.99999999999989" as="targetPoint" />
          </mxGeometry>
        </mxCell>
        <mxCell id="ut8XyZLa7zU56cDXypcy-20" value="Вывести &quot;Введите логин&quot;" style="shape=parallelogram;perimeter=parallelogramPerimeter;whiteSpace=wrap;html=1;fixedSize=1;" vertex="1" parent="WIyWlLk6GJQsqaUBKTNV-1">
          <mxGeometry x="330" y="60" width="180" height="30" as="geometry" />
        </mxCell>
        <mxCell id="ut8XyZLa7zU56cDXypcy-28" value="" style="edgeStyle=orthogonalEdgeStyle;rounded=0;orthogonalLoop=1;jettySize=auto;html=1;" edge="1" parent="WIyWlLk6GJQsqaUBKTNV-1" source="ut8XyZLa7zU56cDXypcy-21">
          <mxGeometry relative="1" as="geometry">
            <mxPoint x="420" y="160" as="targetPoint" />
          </mxGeometry>
        </mxCell>
        <mxCell id="ut8XyZLa7zU56cDXypcy-21" value="Считать&amp;nbsp;Login, найти пользователя" style="shape=parallelogram;perimeter=parallelogramPerimeter;whiteSpace=wrap;html=1;fixedSize=1;" vertex="1" parent="WIyWlLk6GJQsqaUBKTNV-1">
          <mxGeometry x="340" y="110" width="160" height="30" as="geometry" />
        </mxCell>
        <mxCell id="ut8XyZLa7zU56cDXypcy-36" style="edgeStyle=orthogonalEdgeStyle;rounded=0;orthogonalLoop=1;jettySize=auto;html=1;" edge="1" parent="WIyWlLk6GJQsqaUBKTNV-1" source="ut8XyZLa7zU56cDXypcy-27" target="ut8XyZLa7zU56cDXypcy-30">
          <mxGeometry relative="1" as="geometry">
            <Array as="points">
              <mxPoint x="540" y="260" />
            </Array>
          </mxGeometry>
        </mxCell>
        <mxCell id="ut8XyZLa7zU56cDXypcy-42" style="edgeStyle=orthogonalEdgeStyle;rounded=0;orthogonalLoop=1;jettySize=auto;html=1;entryX=0.5;entryY=0;entryDx=0;entryDy=0;" edge="1" parent="WIyWlLk6GJQsqaUBKTNV-1" source="ut8XyZLa7zU56cDXypcy-27" target="ut8XyZLa7zU56cDXypcy-40">
          <mxGeometry relative="1" as="geometry">
            <Array as="points">
              <mxPoint x="300" y="260" />
              <mxPoint x="300" y="560" />
              <mxPoint x="400" y="560" />
            </Array>
          </mxGeometry>
        </mxCell>
        <mxCell id="ut8XyZLa7zU56cDXypcy-27" value="&lt;pre style=&quot;box-sizing: border-box; font-family: monospace, serif; overflow-wrap: break-word; background: rgb(243, 243, 243); color: rgb(49, 49, 49); line-height: 22.5px; margin-top: 0px; margin-bottom: 0px; text-align: left;&quot; class=&quot;hljs language-csharp&quot;&gt;&lt;font style=&quot;font-size: 12px;&quot;&gt;IsPremium = Да&lt;/font&gt;&lt;/pre&gt;" style="rhombus;whiteSpace=wrap;html=1;fillColor=default;strokeColor=default;" vertex="1" parent="WIyWlLk6GJQsqaUBKTNV-1">
          <mxGeometry x="350" y="220" width="140" height="80" as="geometry" />
        </mxCell>
        <mxCell id="ut8XyZLa7zU56cDXypcy-33" value="" style="edgeStyle=orthogonalEdgeStyle;rounded=0;orthogonalLoop=1;jettySize=auto;html=1;" edge="1" parent="WIyWlLk6GJQsqaUBKTNV-1" source="ut8XyZLa7zU56cDXypcy-30" target="ut8XyZLa7zU56cDXypcy-32">
          <mxGeometry relative="1" as="geometry" />
        </mxCell>
        <mxCell id="ut8XyZLa7zU56cDXypcy-30" value="&lt;pre style=&quot;border-color: var(--border-color); background-image: initial; background-position: initial; background-size: initial; background-repeat: initial; background-attachment: initial; background-origin: initial; background-clip: initial; box-sizing: border-box; font-family: monospace, serif; overflow-wrap: break-word; color: rgb(49, 49, 49); line-height: 22.5px; margin-top: 0px; margin-bottom: 0px; font-weight: 600; text-align: left;&quot; class=&quot;hljs language-scss&quot;&gt;Посетите наш новый сайт с &lt;/pre&gt;&lt;pre style=&quot;border-color: var(--border-color); background-image: initial; background-position: initial; background-size: initial; background-repeat: initial; background-attachment: initial; background-origin: initial; background-clip: initial; box-sizing: border-box; font-family: monospace, serif; overflow-wrap: break-word; color: rgb(49, 49, 49); line-height: 22.5px; margin-top: 0px; margin-bottom: 0px; font-weight: 600; text-align: left;&quot; class=&quot;hljs language-scss&quot;&gt;бесплатными играми free.games&lt;/pre&gt;" style="shape=parallelogram;perimeter=parallelogramPerimeter;whiteSpace=wrap;html=1;fixedSize=1;" vertex="1" parent="WIyWlLk6GJQsqaUBKTNV-1">
          <mxGeometry x="420" y="310" width="240" height="60" as="geometry" />
        </mxCell>
        <mxCell id="ut8XyZLa7zU56cDXypcy-35" value="" style="edgeStyle=orthogonalEdgeStyle;rounded=0;orthogonalLoop=1;jettySize=auto;html=1;" edge="1" parent="WIyWlLk6GJQsqaUBKTNV-1" source="ut8XyZLa7zU56cDXypcy-32">
          <mxGeometry relative="1" as="geometry">
            <mxPoint x="540" y="470" as="targetPoint" />
          </mxGeometry>
        </mxCell>
        <mxCell id="ut8XyZLa7zU56cDXypcy-32" value="&lt;pre style=&quot;box-sizing: border-box; font-family: monospace, serif; overflow-wrap: break-word; background-image: initial; background-position: initial; background-size: initial; background-repeat: initial; background-attachment: initial; background-origin: initial; background-clip: initial; color: rgb(49, 49, 49); line-height: 22.5px; margin-top: 0px; margin-bottom: 0px; font-weight: 600; text-align: left;&quot; class=&quot;hljs language-scss&quot;&gt;Купите подписку на МыКомбо и &lt;/pre&gt;&lt;pre style=&quot;box-sizing: border-box; font-family: monospace, serif; overflow-wrap: break-word; background-image: initial; background-position: initial; background-size: initial; background-repeat: initial; background-attachment: initial; background-origin: initial; background-clip: initial; color: rgb(49, 49, 49); line-height: 22.5px; margin-top: 0px; margin-bottom: 0px; font-weight: 600; text-align: left;&quot; class=&quot;hljs language-scss&quot;&gt;слушайте музыку везде и всегда.&lt;/pre&gt;" style="shape=parallelogram;perimeter=parallelogramPerimeter;whiteSpace=wrap;html=1;fixedSize=1;" vertex="1" parent="WIyWlLk6GJQsqaUBKTNV-1">
          <mxGeometry x="420" y="390" width="240" height="60" as="geometry" />
        </mxCell>
        <mxCell id="ut8XyZLa7zU56cDXypcy-41" style="edgeStyle=orthogonalEdgeStyle;rounded=0;orthogonalLoop=1;jettySize=auto;html=1;entryX=0.5;entryY=0;entryDx=0;entryDy=0;" edge="1" parent="WIyWlLk6GJQsqaUBKTNV-1" source="ut8XyZLa7zU56cDXypcy-34" target="ut8XyZLa7zU56cDXypcy-40">
          <mxGeometry relative="1" as="geometry">
            <Array as="points">
              <mxPoint x="540" y="560" />
              <mxPoint x="400" y="560" />
            </Array>
          </mxGeometry>
        </mxCell>
        <mxCell id="ut8XyZLa7zU56cDXypcy-34" value="&lt;pre style=&quot;box-sizing: border-box; font-family: monospace, serif; overflow-wrap: break-word; background-image: initial; background-position: initial; background-size: initial; background-repeat: initial; background-attachment: initial; background-origin: initial; background-clip: initial; color: rgb(49, 49, 49); line-height: 22.5px; margin-top: 0px; margin-bottom: 0px; text-align: left;&quot; class=&quot;hljs language-scss&quot;&gt;&lt;b&gt;Оформите премиум-подписку на наш&lt;/b&gt;&lt;/pre&gt;&lt;pre style=&quot;box-sizing: border-box; font-family: monospace, serif; overflow-wrap: break-word; background-image: initial; background-position: initial; background-size: initial; background-repeat: initial; background-attachment: initial; background-origin: initial; background-clip: initial; color: rgb(49, 49, 49); line-height: 22.5px; margin-top: 0px; margin-bottom: 0px; text-align: left;&quot; class=&quot;hljs language-scss&quot;&gt;&lt;b&gt; сервис, чтобы не видеть рекламу&lt;/b&gt;&lt;/pre&gt;" style="shape=parallelogram;perimeter=parallelogramPerimeter;whiteSpace=wrap;html=1;fixedSize=1;" vertex="1" parent="WIyWlLk6GJQsqaUBKTNV-1">
          <mxGeometry x="415" y="470" width="250" height="60" as="geometry" />
        </mxCell>
        <mxCell id="ut8XyZLa7zU56cDXypcy-39" style="edgeStyle=orthogonalEdgeStyle;rounded=0;orthogonalLoop=1;jettySize=auto;html=1;entryX=0.5;entryY=0;entryDx=0;entryDy=0;" edge="1" parent="WIyWlLk6GJQsqaUBKTNV-1" source="ut8XyZLa7zU56cDXypcy-37" target="ut8XyZLa7zU56cDXypcy-27">
          <mxGeometry relative="1" as="geometry" />
        </mxCell>
        <mxCell id="ut8XyZLa7zU56cDXypcy-37" value="Вывести &quot;Здравствуйте,Name&lt;br&gt;&quot;" style="shape=parallelogram;perimeter=parallelogramPerimeter;whiteSpace=wrap;html=1;fixedSize=1;" vertex="1" parent="WIyWlLk6GJQsqaUBKTNV-1">
          <mxGeometry x="340" y="160" width="160" height="40" as="geometry" />
        </mxCell>
        <mxCell id="ut8XyZLa7zU56cDXypcy-40" value="Конец" style="ellipse;whiteSpace=wrap;html=1;" vertex="1" parent="WIyWlLk6GJQsqaUBKTNV-1">
          <mxGeometry x="340" y="600" width="120" height="40" as="geometry" />
        </mxCell>
      </root>
    </mxGraphModel>
  </diagram>
</mxfile>
